# xmcd
#
# Track frame offsets: 
#        150
#        2190
#        15730
#        28780
#        41920
#        52062
#        63662
#        76405
#        96390
#        114257
#        139495
#        154640
#        175900
#        190459
#        204285
#
# Disc length: 2749 seconds
#
# Revision: 2
# Processed by: cddbd v1.5.2PL0 Copyright (c) Steve Scherf et al.
# Submitted via: ExactAudioCopy v0.99pb4
#
DISCID=d30abb0f
DTITLE=Townes Van Zandt - Be Here to Love Me [2]
DYEAR=2005
DGENRE=Alt Country
TTITLE0=Wild Crazy Things
TTITLE1=Rex's Blues
TTITLE2=Black Crow Blues
TTITLE3=Don't You Take It Too Bad
TTITLE4=When She Don't Need Me
TTITLE5=Snake Song
TTITLE6=Mr. Mudd and Mr. Gold
TTITLE7=Flyin' Shoes
TTITLE8=Delta Momma Blues
TTITLE9=Marie
TTITLE10=To Live's to Fly
TTITLE11=Brand New Companion
TTITLE12=High, Low and in Between
TTITLE13=St. John the Gambler
TTITLE14=I Just Had to Fall
EXTD=
EXTT0=
EXTT1=
EXTT2=
EXTT3=
EXTT4=
EXTT5=
EXTT6=
EXTT7=
EXTT8=
EXTT9=
EXTT10=
EXTT11=
EXTT12=
EXTT13=
EXTT14=
PLAYORDER=
